<svg xmlns="http://www.w3.org/2000/svg" xmlns:xlink="http://www.w3.org/1999/xlink" width="180" zoomAndPan="magnify" viewBox="0 0 135 44.999999" height="60" preserveAspectRatio="xMidYMid meet" version="1.0"><defs><g/></defs><path fill="#46cc6b" d="M 39.9375 9.035156 C 40.386719 9.484375 40.8125 9.953125 41.214844 10.441406 C 41.617188 10.933594 41.992188 11.441406 42.34375 11.96875 C 42.699219 12.496094 43.023438 13.039062 43.320312 13.597656 C 43.621094 14.15625 43.890625 14.726562 44.132812 15.3125 C 44.378906 15.898438 44.589844 16.496094 44.773438 17.101562 C 44.957031 17.710938 45.113281 18.324219 45.234375 18.945312 C 45.359375 19.566406 45.453125 20.195312 45.515625 20.824219 C 45.578125 21.457031 45.609375 22.085938 45.609375 22.722656 C 45.609375 23.355469 45.578125 23.988281 45.515625 24.621094 C 45.453125 25.25 45.359375 25.875 45.234375 26.5 C 45.113281 27.121094 44.957031 27.734375 44.773438 28.339844 C 44.589844 28.949219 44.378906 29.542969 44.132812 30.128906 C 43.890625 30.714844 43.621094 31.289062 43.324219 31.847656 C 43.023438 32.40625 42.699219 32.949219 42.347656 33.476562 C 41.992188 34.003906 41.617188 34.511719 41.214844 35.003906 C 40.8125 35.492188 40.386719 35.960938 39.9375 36.410156 C 39.492188 36.859375 39.019531 37.28125 38.53125 37.683594 C 38.042969 38.085938 37.53125 38.464844 37.003906 38.816406 C 36.476562 39.167969 35.933594 39.496094 35.375 39.792969 C 34.816406 40.09375 34.246094 40.363281 33.660156 40.605469 C 33.074219 40.847656 32.476562 41.0625 31.871094 41.246094 C 31.261719 41.429688 30.648438 41.582031 30.027344 41.707031 C 29.40625 41.832031 28.78125 41.925781 28.148438 41.984375 C 27.515625 42.046875 26.886719 42.078125 26.25 42.078125 C 25.617188 42.078125 24.984375 42.046875 24.355469 41.984375 C 23.722656 41.925781 23.097656 41.832031 22.476562 41.707031 C 21.851562 41.582031 21.238281 41.429688 20.632812 41.246094 C 20.023438 41.0625 19.429688 40.847656 18.84375 40.605469 C 18.257812 40.363281 17.683594 40.09375 17.125 39.792969 C 16.566406 39.496094 16.023438 39.167969 15.496094 38.816406 C 14.96875 38.464844 14.460938 38.089844 13.972656 37.6875 C 13.480469 37.285156 13.011719 36.859375 12.5625 36.410156 C 12.113281 35.960938 11.691406 35.492188 11.289062 35.003906 C 10.886719 34.511719 10.507812 34.003906 10.15625 33.476562 C 9.804688 32.949219 9.476562 32.40625 9.179688 31.847656 C 8.878906 31.289062 8.609375 30.714844 8.367188 30.128906 C 8.125 29.542969 7.910156 28.949219 7.726562 28.339844 C 7.542969 27.734375 7.390625 27.121094 7.265625 26.5 C 7.140625 25.878906 7.050781 25.25 6.988281 24.621094 C 6.925781 23.988281 6.894531 23.355469 6.894531 22.722656 C 6.894531 22.089844 6.925781 21.457031 6.988281 20.824219 C 7.046875 20.195312 7.140625 19.566406 7.265625 18.945312 C 7.390625 18.324219 7.542969 17.710938 7.726562 17.101562 C 7.910156 16.496094 8.125 15.902344 8.367188 15.316406 C 8.609375 14.730469 8.878906 14.15625 9.179688 13.597656 C 9.476562 13.039062 9.804688 12.496094 10.15625 11.96875 C 10.507812 11.441406 10.886719 10.933594 11.289062 10.441406 C 11.6875 9.953125 12.113281 9.484375 12.5625 9.035156 C 13.011719 8.585938 13.480469 8.160156 13.96875 7.757812 C 14.460938 7.355469 14.96875 6.980469 15.496094 6.628906 C 16.023438 6.273438 16.566406 5.949219 17.125 5.652344 C 17.683594 5.351562 18.257812 5.082031 18.84375 4.839844 C 19.429688 4.597656 20.023438 4.382812 20.632812 4.199219 C 21.238281 4.015625 21.851562 3.859375 22.472656 3.738281 C 23.097656 3.613281 23.722656 3.519531 24.351562 3.457031 C 24.984375 3.394531 25.617188 3.363281 26.25 3.363281 C 26.882812 3.363281 27.515625 3.394531 28.148438 3.457031 C 28.777344 3.519531 29.40625 3.613281 30.027344 3.738281 C 30.648438 3.859375 31.261719 4.015625 31.871094 4.199219 C 32.476562 4.382812 33.074219 4.59375 33.65625 4.839844 C 34.242188 5.082031 34.816406 5.351562 35.375 5.652344 C 35.933594 5.949219 36.476562 6.273438 37.003906 6.628906 C 37.53125 6.980469 38.039062 7.355469 38.53125 7.757812 C 39.019531 8.160156 39.488281 8.585938 39.9375 9.035156 Z M 39.9375 9.035156 " fill-opacity="1" fill-rule="nonzero"/><path fill="#179c5f" d="M 45.597656 23.351562 C 45.269531 33.582031 37.007812 41.808594 26.761719 42.074219 L 16.285156 31.597656 L 16.285156 24.652344 L 22.53125 24.652344 L 16.96875 19.09375 C 18.464844 15.277344 22.152344 12.757812 26.25 12.757812 C 29.121094 12.757812 31.832031 13.988281 33.722656 16.136719 L 33.722656 13.972656 L 36.214844 13.972656 Z M 45.597656 23.351562 " fill-opacity="1" fill-rule="evenodd"/><path fill="#ffffff" d="M 20.222656 27.144531 C 21.636719 29.066406 23.859375 30.195312 26.25 30.195312 C 29.332031 30.195312 32.09375 28.316406 33.214844 25.445312 L 35.53125 26.351562 C 34.039062 30.167969 30.351562 32.6875 26.25 32.6875 C 23.378906 32.6875 20.671875 31.457031 18.777344 29.308594 L 18.777344 31.597656 L 16.285156 31.597656 L 16.285156 24.652344 L 22.683594 24.652344 L 22.683594 27.144531 Z M 36.214844 13.972656 L 36.214844 20.917969 L 29.820312 20.917969 L 29.820312 18.425781 L 32.367188 18.425781 C 30.964844 16.429688 28.699219 15.25 26.25 15.25 C 23.171875 15.25 20.410156 17.128906 19.285156 20 L 16.96875 19.09375 C 18.464844 15.277344 22.152344 12.757812 26.25 12.757812 C 29.121094 12.757812 31.832031 13.988281 33.722656 16.136719 L 33.722656 13.972656 Z M 36.214844 13.972656 " fill-opacity="1" fill-rule="evenodd"/><g fill="#424242" fill-opacity="1"><g transform="translate(46.695419, 29.617296)"><g><path d="M 7.671875 0.171875 C 6.421875 0.171875 5.300781 -0.03125 4.3125 -0.4375 C 3.332031 -0.84375 2.546875 -1.441406 1.953125 -2.234375 C 1.359375 -3.023438 1.046875 -3.976562 1.015625 -5.09375 L 5.4375 -5.09375 C 5.5 -4.46875 5.71875 -3.988281 6.09375 -3.65625 C 6.46875 -3.320312 6.953125 -3.15625 7.546875 -3.15625 C 8.160156 -3.15625 8.644531 -3.296875 9 -3.578125 C 9.351562 -3.859375 9.53125 -4.25 9.53125 -4.75 C 9.53125 -5.175781 9.390625 -5.523438 9.109375 -5.796875 C 8.828125 -6.078125 8.476562 -6.304688 8.0625 -6.484375 C 7.65625 -6.660156 7.070312 -6.859375 6.3125 -7.078125 C 5.207031 -7.421875 4.304688 -7.757812 3.609375 -8.09375 C 2.921875 -8.4375 2.320312 -8.941406 1.8125 -9.609375 C 1.3125 -10.273438 1.0625 -11.140625 1.0625 -12.203125 C 1.0625 -13.785156 1.632812 -15.023438 2.78125 -15.921875 C 3.9375 -16.828125 5.4375 -17.28125 7.28125 -17.28125 C 9.15625 -17.28125 10.664062 -16.828125 11.8125 -15.921875 C 12.96875 -15.023438 13.582031 -13.78125 13.65625 -12.1875 L 9.171875 -12.1875 C 9.140625 -12.726562 8.9375 -13.15625 8.5625 -13.46875 C 8.1875 -13.789062 7.710938 -13.953125 7.140625 -13.953125 C 6.628906 -13.953125 6.21875 -13.816406 5.90625 -13.546875 C 5.601562 -13.285156 5.453125 -12.90625 5.453125 -12.40625 C 5.453125 -11.851562 5.710938 -11.421875 6.234375 -11.109375 C 6.753906 -10.804688 7.5625 -10.476562 8.65625 -10.125 C 9.757812 -9.75 10.65625 -9.390625 11.34375 -9.046875 C 12.03125 -8.710938 12.625 -8.21875 13.125 -7.5625 C 13.625 -6.914062 13.875 -6.085938 13.875 -5.078125 C 13.875 -4.097656 13.628906 -3.210938 13.140625 -2.421875 C 12.648438 -1.628906 11.929688 -1 10.984375 -0.53125 C 10.046875 -0.0625 8.941406 0.171875 7.671875 0.171875 Z M 7.671875 0.171875 "/></g></g></g><g fill="#424242" fill-opacity="1"><g transform="translate(61.621076, 29.617296)"><g><path d="M 15.328125 -13.546875 L 6.84375 6.4375 L 2.375 6.4375 L 5.484375 -0.46875 L -0.03125 -13.546875 L 4.609375 -13.546875 L 7.734375 -5.078125 L 10.84375 -13.546875 Z M 15.328125 -13.546875 "/></g></g></g><g fill="#424242" fill-opacity="1"><g transform="translate(76.95933, 29.617296)"><g><path d="M 9.75 -13.6875 C 11.332031 -13.6875 12.597656 -13.171875 13.546875 -12.140625 C 14.492188 -11.117188 14.96875 -9.707031 14.96875 -7.90625 L 14.96875 0 L 10.84375 0 L 10.84375 -7.359375 C 10.84375 -8.265625 10.609375 -8.96875 10.140625 -9.46875 C 9.671875 -9.96875 9.039062 -10.21875 8.25 -10.21875 C 7.457031 -10.21875 6.828125 -9.96875 6.359375 -9.46875 C 5.890625 -8.96875 5.65625 -8.265625 5.65625 -7.359375 L 5.65625 0 L 1.5 0 L 1.5 -13.546875 L 5.65625 -13.546875 L 5.65625 -11.75 C 6.070312 -12.34375 6.632812 -12.8125 7.34375 -13.15625 C 8.0625 -13.507812 8.863281 -13.6875 9.75 -13.6875 Z M 9.75 -13.6875 "/></g></g></g><g fill="#424242" fill-opacity="1"><g transform="translate(93.316887, 29.617296)"><g><path d="M 0.671875 -6.765625 C 0.671875 -8.171875 0.957031 -9.398438 1.53125 -10.453125 C 2.113281 -11.503906 2.914062 -12.3125 3.9375 -12.875 C 4.96875 -13.445312 6.144531 -13.734375 7.46875 -13.734375 C 9.164062 -13.734375 10.582031 -13.285156 11.71875 -12.390625 C 12.863281 -11.503906 13.617188 -10.253906 13.984375 -8.640625 L 9.5625 -8.640625 C 9.1875 -9.671875 8.46875 -10.1875 7.40625 -10.1875 C 6.644531 -10.1875 6.035156 -9.890625 5.578125 -9.296875 C 5.128906 -8.710938 4.90625 -7.867188 4.90625 -6.765625 C 4.90625 -5.671875 5.128906 -4.828125 5.578125 -4.234375 C 6.035156 -3.640625 6.644531 -3.34375 7.40625 -3.34375 C 8.46875 -3.34375 9.1875 -3.863281 9.5625 -4.90625 L 13.984375 -4.90625 C 13.617188 -3.320312 12.863281 -2.078125 11.71875 -1.171875 C 10.570312 -0.265625 9.15625 0.1875 7.46875 0.1875 C 6.144531 0.1875 4.96875 -0.09375 3.9375 -0.65625 C 2.914062 -1.21875 2.113281 -2.023438 1.53125 -3.078125 C 0.957031 -4.128906 0.671875 -5.359375 0.671875 -6.765625 Z M 0.671875 -6.765625 "/></g></g></g><g fill="#424242" fill-opacity="1"><g transform="translate(107.999862, 29.617296)"><g><path d="M 5.65625 -17.953125 L 5.65625 0 L 1.5 0 L 1.5 -17.953125 Z M 5.65625 -17.953125 "/></g></g></g><g fill="#424242" fill-opacity="1"><g transform="translate(115.159323, 29.617296)"><g><path d="M 15.328125 -13.546875 L 6.84375 6.4375 L 2.375 6.4375 L 5.484375 -0.46875 L -0.03125 -13.546875 L 4.609375 -13.546875 L 7.734375 -5.078125 L 10.84375 -13.546875 Z M 15.328125 -13.546875 "/></g></g></g></svg>